<?xml version="1.0" encoding="UTF-8"?>
<svg version="1.1" xmlns="http://www.w3.org/2000/svg" width="1280" height="960">
<path d="M0 0 C0.98545303 -0.00701431 1.97090607 -0.01402863 2.98622131 -0.02125549 C6.15752764 -0.03870107 9.32864742 -0.04510966 12.5 -0.046875 C14.12202835 -0.04788712 14.12202835 -0.04788712 15.77682495 -0.04891968 C31.5473525 -0.03325471 46.95643489 0.27667811 62.5 3.203125 C63.93956055 3.46851074 63.93956055 3.46851074 65.40820312 3.73925781 C99.48114636 10.19905943 132.88126294 22.33672015 161.5 42.203125 C162.06589844 42.58791016 162.63179687 42.97269531 163.21484375 43.36914062 C180.39577458 55.05906127 197.25128038 69.14496707 210.5 85.203125 C211.304375 86.11964844 212.10875 87.03617187 212.9375 87.98046875 C223.80654876 100.40673289 233.17858027 113.95187467 241.5 128.203125 C241.87833984 128.83702148 242.25667969 129.47091797 242.64648438 130.12402344 C258.93708047 157.52422894 270.32419279 188.16237853 271.5 220.203125 C271.561875 221.79640625 271.561875 221.79640625 271.625 223.421875 C272.33663142 262.20578766 264.60856433 301.32827706 258.62280273 339.48266602 C252.27263251 380.16731275 249.68557783 413.206103 274.73339844 447.91210938 C283.61968812 460.00408153 293.98759289 470.89875655 304.75 481.328125 C309.99606511 486.56432909 312.04621192 491.24819788 312.5546875 498.62109375 C312.39812877 506.01290244 309.3234977 511.25026246 304.3359375 516.54296875 C299.89150069 520.56187438 295.12927551 521.99690731 289.3125 522.453125 C278.11792135 521.71905427 272.10875994 515.78167147 264.5 508.203125 C263.59507812 507.32398438 262.69015625 506.44484375 261.7578125 505.5390625 C256.75435464 500.62685311 251.98461837 495.59182811 247.5 490.203125 C247.08024902 489.70780273 246.66049805 489.21248047 246.22802734 488.70214844 C222.50329709 460.59556366 205.74743161 427.52288271 206 390.140625 C206.00242706 389.39514404 206.00485413 388.64966309 206.00735474 387.8815918 C206.12330917 369.09451241 208.67028211 350.74409039 211.5 332.203125 C211.6715863 331.07650452 211.84317261 329.94988403 212.0199585 328.78912354 C212.588852 325.05843813 213.15937928 321.3280061 213.73046875 317.59765625 C213.92654221 316.31591522 214.12261566 315.03417419 214.32463074 313.71359253 C215.29837028 307.36075069 216.28212529 301.00981672 217.28881836 294.66210938 C220.73584249 272.76148338 224.13000392 250.67635191 223.875 228.453125 C223.87001495 227.78487701 223.86502991 227.11662903 223.8598938 226.4281311 C223.48911831 183.56965336 199.23648472 141.96305993 169.95849609 111.71289062 C168.94444979 110.66319824 167.93744678 109.60667457 166.93603516 108.54492188 C135.5873664 75.33349257 94.15497659 56.5746651 49.5 49.203125 C48.7471875 49.07180176 47.994375 48.94047852 47.21875 48.80517578 C23.57702963 44.81451607 -3.02937112 45.71739157 -26.5 50.203125 C-27.81581055 50.45255859 -27.81581055 50.45255859 -29.15820312 50.70703125 C-77.13617249 60.1832944 -120.02112803 89.49398328 -149.5 128.203125 C-150.29325684 129.22237061 -150.29325684 129.22237061 -151.10253906 130.26220703 C-162.4832042 144.8922612 -172.50078235 160.18747618 -182.03125 176.07421875 C-192.56192785 193.62486372 -203.84450874 209.9408298 -217.5 225.203125 C-218.38953229 226.21596199 -219.27885995 227.22897873 -220.16796875 228.2421875 C-234.77274714 244.59436183 -259.49922425 271.90970271 -282.4296875 274.5390625 C-290.29817962 274.64341916 -295.62342061 273.81103057 -301.47265625 268.3671875 C-306.79819048 262.65891467 -309.04219655 257.47061125 -308.8046875 249.6328125 C-307.86658292 242.15202982 -304.89370453 236.64020616 -299.01953125 231.96484375 C-295.42521602 229.45160938 -291.71000171 227.13817332 -287.99121094 224.81567383 C-281.286663 220.55990594 -275.40705613 215.48714292 -269.5 210.203125 C-268.96568359 209.73052246 -268.43136719 209.25791992 -267.88085938 208.77099609 C-261.66192244 203.26080741 -255.75281659 197.66061646 -250.5 191.203125 C-250.07783203 190.69861816 -249.65566406 190.19411133 -249.22070312 189.67431641 C-237.3893485 175.53430582 -228.02357026 160.12225681 -218.48974609 144.38110352 C-214.3307505 137.52663288 -210.09038438 130.77955324 -205.5 124.203125 C-205.12456055 123.66461914 -204.74912109 123.12611328 -204.36230469 122.57128906 C-194.48488097 108.4504669 -183.94988087 95.08162127 -172.5 82.203125 C-171.99758789 81.63609863 -171.49517578 81.06907227 -170.97753906 80.48486328 C-166.09954586 74.99914667 -161.19314244 69.6643783 -155.55078125 64.94921875 C-154.07386761 63.69173228 -152.63791935 62.38555798 -151.23046875 61.05078125 C-138.9546729 49.4161176 -125.0113009 39.46225241 -110.26660156 31.19580078 C-108.53981164 30.22549566 -106.82824449 29.22825603 -105.1171875 28.23046875 C-78.94921933 13.3001191 -49.21325827 5.08657398 -19.5 1.203125 C-18.52933594 1.07429932 -18.52933594 1.07429932 -17.5390625 0.94287109 C-11.68198217 0.22108425 -5.8977646 0.02805292 0 0 Z " fill="#333333" transform="translate(623.5,226.796875)"/>
<path d="M0 0 C21.82157842 19.45468764 34.35628096 47.43744241 39 76 C39.21269531 77.26650391 39.21269531 77.26650391 39.4296875 78.55859375 C46.38483615 132.92749967 12.45637594 185.05399109 -19 226 C-23.23901076 231.41140002 -27.59904506 236.71998288 -32 242 C-32.48065918 242.57975586 -32.96131836 243.15951172 -33.45654297 243.75683594 C-39.24488432 250.730019 -45.21020756 257.50649629 -51.37109375 264.15234375 C-53.83973559 266.82640006 -56.26791572 269.53159914 -58.6875 272.25 C-62.04688351 275.99861689 -65.53875694 279.56354199 -69.125 283.09375 C-70.88076266 284.87877537 -72.5068229 286.71555102 -74.125 288.625 C-81.40524116 297.07677422 -89.4976947 305.02909937 -98.01171875 312.23046875 C-100.61543682 314.54772668 -103.05297392 317.02021976 -105.5 319.5 C-109.11684136 323.16035131 -112.80241872 326.66148809 -116.71875 330 C-119.19292602 332.16914062 -121.58927283 334.40883883 -123.98754883 336.66113281 C-129.5926114 341.92501766 -135.28288053 346.94934423 -141.2890625 351.7578125 C-144.28905961 354.23907812 -147.15130287 356.84888189 -150 359.5 C-154.57924849 363.75535938 -159.29286588 367.77323156 -164.1640625 371.6953125 C-167.25588048 374.20794695 -170.28427573 376.78658385 -173.3125 379.375 C-178.897964 384.13139112 -184.62302373 388.6839367 -190.41015625 393.19140625 C-193.44850649 395.55991011 -196.45624483 397.96417399 -199.45654297 400.38061523 C-211.4235336 410.01623082 -223.64833708 419.30135263 -236 428.4375 C-236.76473633 429.00452637 -237.52947266 429.57155273 -238.31738281 430.15576172 C-242.10786631 432.94627643 -245.93113354 435.68476615 -249.8125 438.34765625 C-250.52019531 438.83371338 -251.22789062 439.31977051 -251.95703125 439.82055664 C-257.66686252 443.11694704 -265.26940829 442.96460783 -271.5078125 441.3515625 C-277.89097277 438.81993623 -281.96606939 435.00825886 -285.06640625 428.8984375 C-287.86713967 421.78984953 -287.46051818 414.80322955 -284.4375 407.8125 C-280.18288239 400.28047377 -272.3975097 395.76995026 -265.48901367 390.90283203 C-259.72866314 386.84254516 -254.15562283 382.56551453 -248.59570312 378.23681641 C-245.97250039 376.20359348 -243.32693565 374.1995821 -240.6875 372.1875 C-234.26038153 367.26338689 -227.98817145 362.15367814 -221.71875 357.03125 C-218.76888609 354.62150201 -215.79819922 352.24029419 -212.8125 349.875 C-208.42736866 346.38013861 -204.15124598 342.76584807 -199.8815918 339.13183594 C-196.49593365 336.25350579 -193.07870163 333.42183119 -189.625 330.625 C-179.59634666 322.4475661 -169.88801563 313.91030411 -160.41796875 305.09399414 C-157.69199562 302.55652812 -154.94831314 300.05365647 -152.125 297.625 C-142.50629982 289.28743747 -133.34845314 280.43177211 -124.41015625 271.375 C-122.33707246 269.33215569 -120.22635042 267.43353388 -118 265.5625 C-114.12526152 262.25479642 -110.75596926 258.5430338 -107.35644531 254.76293945 C-103.9330032 250.97135361 -100.38686721 247.33667993 -96.75 243.75 C-92.90797919 239.95174212 -89.20282417 236.09487221 -85.69921875 231.98046875 C-83.71969568 229.67330048 -81.6735788 227.43353218 -79.625 225.1875 C-74.89481647 219.9379551 -70.41542472 214.51563781 -66 209 C-65.58524414 208.4848584 -65.17048828 207.9697168 -64.74316406 207.43896484 C-37.68784332 173.77758573 -3.61582337 129.77535364 -8 84 C-10.66153953 64.46873573 -19.23610295 45.52577466 -34.56640625 32.74609375 C-46.59910636 24.11267971 -60.54938803 20.55984905 -75.16796875 22.3984375 C-94.37984131 25.74152041 -110.6490021 36.85439425 -121.88671875 52.65234375 C-126.83110029 60.28454325 -130.64864218 68.36529426 -134.51538086 76.578125 C-149.44956892 108.22673546 -166.8099419 137.89092517 -189 165 C-189.44263184 165.5470459 -189.88526367 166.0940918 -190.34130859 166.65771484 C-197.88868684 175.92028297 -206.20588791 184.41327322 -214.625 192.875 C-215.1539386 193.40920563 -215.6828772 193.94341125 -216.22784424 194.49380493 C-222.4222108 200.73580939 -228.70910629 206.61200106 -235.60766602 212.07910156 C-237.92108414 213.93663537 -240.12336224 215.87345641 -242.3125 217.875 C-248.2905976 223.23322457 -254.6432289 228.10505468 -261 233 C-261.79019531 233.6094043 -262.58039063 234.21880859 -263.39453125 234.84667969 C-274.72243522 243.56881773 -286.16394569 252.10440216 -297.79394531 260.41894531 C-300.8019705 262.57476328 -303.7976665 264.74742714 -306.79418945 266.91918945 C-314.02110186 272.1548312 -321.27953411 277.34207272 -328.58813477 282.46313477 C-332.34178938 285.09929249 -336.06252154 287.77186553 -339.75 290.5 C-340.54341797 291.08394531 -341.33683594 291.66789062 -342.15429688 292.26953125 C-343.66608633 293.38480641 -345.17301001 294.50672272 -346.67382812 295.63671875 C-354.60467006 301.47275999 -361.97526202 305.34202137 -372 304 C-378.58752242 302.39918599 -383.20006712 299.44990865 -387.25 293.9375 C-391.17041441 287.35680439 -391.22782809 278.91131235 -389.38671875 271.546875 C-385.57629404 263.01958093 -376.50307656 257.78369659 -369 252.8125 C-362.83907318 248.66662217 -356.78574681 244.43334188 -350.875 239.9375 C-345.55146865 235.89002607 -340.1670919 231.95875123 -334.6875 228.125 C-325.33845679 221.57796615 -316.16097917 214.80676106 -307 208 C-306.41347656 207.56558594 -305.82695312 207.13117188 -305.22265625 206.68359375 C-290.57259557 195.83037031 -276.04401726 184.64269178 -262.58203125 172.3359375 C-260.49716381 170.44977906 -258.38693257 168.60869533 -256.2578125 166.7734375 C-244.91054312 156.8606668 -234.12550184 145.9995478 -225 134 C-223.97762589 132.69317779 -222.95409288 131.38726178 -221.9296875 130.08203125 C-201.87046314 104.37857646 -185.86918898 75.82358276 -172.38232422 46.16308594 C-159.0830496 16.94231551 -135.3478305 -7.2471334 -105.02148438 -18.75048828 C-68.34266465 -31.75335846 -29.63510816 -25.2942425 0 0 Z " fill="#333333" transform="translate(705,411)"/>
<path d="M0 0 C0.61117676 0.32226562 1.22235352 0.64453125 1.85205078 0.9765625 C10.95139129 5.8125069 19.0720319 11.4609915 27 18 C27.58313965 18.48017578 28.1662793 18.96035156 28.76708984 19.45507812 C41.33027057 29.86951705 52.20561816 40.94611132 62 54 C62.62648438 54.81984375 63.25296875 55.6396875 63.8984375 56.484375 C84.79297326 84.93233449 93.50908709 119.40324692 93.3125 154.3125 C93.30827026 155.41673309 93.30827026 155.41673309 93.30395508 156.54327393 C93.12789181 187.50632489 86.83432646 217.47465939 81.09375 247.78515625 C71.36652622 299.19751259 68.11497962 350.46669486 97 397 C99.17101209 400.15783577 101.51154265 403.08808668 104 406 C104.65484375 406.81082031 105.3096875 407.62164063 105.984375 408.45703125 C117.57442334 422.22550109 133.50289453 429.62575734 150.125 435.625 C156.91920212 438.17812714 161.62704203 441.30809313 165.4375 447.5625 C168.16288847 453.70937182 168.07349093 460.9341531 166.375 467.3671875 C163.59448432 473.74747794 158.23372086 478.41754085 152.0625 481.4375 C132.42756885 485.04391593 108.62001571 471.16688483 92.85644531 460.33398438 C87.60519085 456.56059479 82.77060523 452.3568942 78 448 C77.21367188 447.29617188 76.42734375 446.59234375 75.6171875 445.8671875 C44.11113735 416.16793593 27.46274044 365.1757509 25.87768555 322.72412109 C25.80723441 319.50805883 25.76906831 316.29418505 25.75976562 313.07739258 C25.7503031 311.12503708 25.71925793 309.17282324 25.6875 307.22070312 C25.60564576 286.27625051 29.16795551 265.64343045 33.21533203 245.15701294 C34.35170404 239.39561318 35.45146328 233.62719744 36.5546875 227.859375 C36.77010193 226.73644547 36.98551636 225.61351593 37.2074585 224.45655823 C46.11637491 177.86301152 54.15889304 129.1058953 27.25 86.8125 C4.90439075 54.95254931 -27.65826387 33.56812233 -65.9765625 26.19921875 C-99.52216353 20.91955777 -134.75037643 29.47446856 -162.44140625 49.07421875 C-170.31989404 55.00413399 -177.78025806 61.28146328 -185 68 C-185.99966797 68.91845703 -185.99966797 68.91845703 -187.01953125 69.85546875 C-207.07787026 89.01506345 -221.25700684 115.23946515 -232.5625 140.1875 C-242.86311218 162.82786238 -256.24609692 182.20712449 -273.38671875 200.23828125 C-275.57432684 202.5501481 -277.67974916 204.89642848 -279.75 207.3125 C-285.00803325 213.37260611 -290.73185054 218.86819187 -296.8125 224.09375 C-299.35511399 226.30945648 -301.83110198 228.59098592 -304.3125 230.875 C-309.71670795 235.7919433 -315.27662579 240.46088689 -321 245 C-321.64855957 245.51578613 -322.29711914 246.03157227 -322.96533203 246.56298828 C-333.71934369 255.09084318 -344.68073936 263.23852884 -356 271 C-356.68288086 271.46986328 -357.36576172 271.93972656 -358.06933594 272.42382812 C-360.06195444 273.7902494 -362.06053643 275.14731508 -364.0625 276.5 C-364.64539795 276.89735352 -365.2282959 277.29470703 -365.82885742 277.70410156 C-373.83554184 283.05181981 -381.44352833 287.1904889 -391.35546875 285.62890625 C-398.37799553 283.68290485 -403.89786348 279.43413546 -407.6953125 273.23046875 C-410.25753766 266.88627651 -410.36410553 258.94681199 -408.12109375 252.45703125 C-403.36886866 244.34844917 -394.73793221 239.35079259 -387.0625 234.375 C-377.75842602 228.25532954 -368.80327837 221.81513809 -360 215 C-358.80990949 214.08852384 -357.61980552 213.17706525 -356.4296875 212.265625 C-350.15917438 207.43108728 -344.05805276 202.42171361 -338.0625 197.25 C-337.45978271 196.73123291 -336.85706543 196.21246582 -336.23608398 195.67797852 C-332.55292723 192.46700827 -329.06054974 189.12132904 -325.64916992 185.62280273 C-323.92025774 183.92153267 -322.11273562 182.36511723 -320.25 180.8125 C-312.16289118 173.79642862 -305.26558415 165.46822089 -298.4375 157.25 C-297.94419189 156.66806885 -297.45088379 156.0861377 -296.94262695 155.48657227 C-287.27879014 143.66514043 -280.37233866 130.19150648 -273.92608643 116.43829346 C-263.3885002 94.03149911 -251.68271355 73.25902526 -236 54 C-235.54592773 53.43168457 -235.09185547 52.86336914 -234.62402344 52.27783203 C-203.39772987 13.25074344 -158.23568591 -15.55496712 -108.0234375 -21.49609375 C-69.86179431 -25.17471525 -33.72111239 -17.98917067 0 0 Z " fill="#333333" transform="translate(724,327)"/>
<path d="M0 0 C0.50504059 0.41962006 1.01008118 0.83924011 1.53042603 1.27157593 C10.26342278 8.55243544 18.51432165 16.19646476 26.5246582 24.26391602 C28.32215805 26.07221608 30.13022316 27.86945977 31.93945312 29.66601562 C38.7529339 36.47171036 45.02970865 43.4348776 51 51 C51.91000809 52.08634184 52.82547536 53.16817283 53.75 54.2421875 C58.055043 59.27968573 62.16713175 64.40922045 66 69.8125 C66.721875 70.82957031 67.44375 71.84664062 68.1875 72.89453125 C72.2412894 79.84014024 72.71018631 86.28195139 71 94 C68.34154599 100.28458529 63.89176632 105.09780679 57.73828125 108.10546875 C51.78527727 110.05017333 44.50025826 110.20216538 38.5546875 108.16015625 C30.54448646 103.49539211 25.32821014 95.16251189 19.83911133 87.9309082 C16.52657063 83.59893107 13.00434134 79.51731675 9.30078125 75.51171875 C7.4388274 73.47905945 5.63650372 71.41759919 3.83984375 69.328125 C-0.48749524 64.37110234 -5.09633784 59.71176195 -9.75 55.0625 C-11.08224609 53.7314624 -11.08224609 53.7314624 -12.44140625 52.37353516 C-18.37499001 46.49533441 -24.39593603 41.11215062 -31 36 C-32.85730404 34.42034809 -34.71127133 32.83676743 -36.5625 31.25 C-49.83118851 20.20702699 -64.06753615 10.63377835 -79 2 C-79.82951172 1.5167627 -80.65902344 1.03352539 -81.51367188 0.53564453 C-124.92068367 -24.55648249 -173.14152717 -37.76651844 -223.25 -37.375 C-224.85325134 -37.36802094 -224.85325134 -37.36802094 -226.4888916 -37.36090088 C-242.82136297 -37.2777739 -258.87337518 -36.80934942 -275 -34 C-276.15193848 -33.80132324 -277.30387695 -33.60264648 -278.49072266 -33.39794922 C-339.90565841 -22.44125548 -395.59265005 6.88335302 -436 55 C-436.7940625 55.91652344 -437.588125 56.83304688 -438.40625 57.77734375 C-445.41259143 65.8938042 -451.95536613 74.32456418 -458.40332031 82.88867188 C-459.89999486 84.86776079 -461.41181633 86.83402197 -462.9296875 88.796875 C-473.04126149 101.95272013 -482.38771987 115.75511129 -491.03125 129.91796875 C-491.70003174 131.01334961 -491.70003174 131.01334961 -492.38232422 132.13085938 C-493.17613658 133.44462662 -493.96007263 134.76444625 -494.73095703 136.09179688 C-498.63254666 142.59504641 -503.69959914 146.72610465 -511 149 C-518.98754236 150.11825593 -525.43665055 148.75871572 -532 144 C-537.03280469 139.01929474 -539.58239595 133.77032324 -540.203125 126.6796875 C-540.0398588 99.3325993 -501.95380625 60.68416196 -485.42382812 40.72363281 C-483.41159527 38.28769935 -481.4269225 35.82957525 -479.4375 33.375 C-477.96061623 31.58145106 -476.48135175 29.78986046 -475 28 C-474.59056152 27.49887695 -474.18112305 26.99775391 -473.75927734 26.48144531 C-462.34256019 12.54990154 -449.74131769 -1.0025687 -435.484375 -12.0625 C-433.78692266 -13.38629931 -432.13122555 -14.76495864 -430.515625 -16.1875 C-415.14925737 -29.68858601 -397.18139504 -40.7054576 -379 -50 C-378.20625977 -50.40911621 -377.41251953 -50.81823242 -376.59472656 -51.23974609 C-281.19407098 -99.91164343 -162.08563727 -95.33844306 0 0 Z " fill="#333333" transform="translate(864,232)"/>
<path d="M0 0 C3.83166139 0.01609634 7.66226629 0.00001865 11.49389648 -0.01904297 C71.80109103 -0.06925452 130.91702254 13.61242679 185.39819336 39.39111328 C186.22174316 39.78024902 187.04529297 40.16938477 187.89379883 40.5703125 C213.51514261 52.783103 236.77442095 68.35686848 259.39819336 85.39111328 C259.97601562 85.82262695 260.55383789 86.25414062 261.14916992 86.69873047 C268.02456614 91.8541863 273.29015804 96.37419957 275.14038086 105.18798828 C275.95510037 112.15013685 274.89502309 117.8743821 270.85522461 123.63720703 C266.58515463 128.77731808 261.91921003 131.94400005 255.19897461 132.79736328 C241.1932513 133.1737769 234.16562207 126.26146416 223.68945312 117.98486328 C177.84726351 82.07944261 121.02406493 59.80775054 63.71069336 51.14111328 C62.21940918 50.91452026 62.21940918 50.91452026 60.69799805 50.68334961 C41.77462094 48.0078195 22.86879342 47.00848445 3.77319336 47.07861328 C2.21128769 47.0813475 2.21128769 47.0813475 0.61782837 47.08413696 C-16.29955821 47.13374522 -32.85709147 47.80237526 -49.60180664 50.39111328 C-51.28161621 50.64852295 -51.28161621 50.64852295 -52.99536133 50.91113281 C-119.71964994 61.50183905 -190.02223964 92.23856082 -233.65942383 145.77368164 C-239.56561914 152.98634097 -245.23128937 156.78476456 -254.47680664 157.82861328 C-261.63945986 157.47681302 -267.74827418 154.78335641 -272.60180664 149.51611328 C-277.10263936 143.7444572 -278.14531715 138.49343351 -277.96899414 131.25439453 C-276.73622136 121.6413898 -270.00698861 115.11766251 -263.60180664 108.39111328 C-262.42781588 107.04329127 -261.26060082 105.68952273 -260.10180664 104.32861328 C-253.80950776 97.12080671 -246.93298461 90.52965942 -239.60180664 84.39111328 C-239.07796387 83.94815918 -238.55412109 83.50520508 -238.0144043 83.04882812 C-171.73035309 27.19888605 -86.17126207 -0.4279757 0 0 Z " fill="#333333" transform="translate(631.601806640625,69.60888671875)"/>
<path d="M0 0 C5.54382362 3.83803174 8.80282112 8.00940375 10.75 14.5 C14.35797461 50.57974608 -29.1545474 98.94557769 -50.8125 125.5 C-52.39204584 127.42290486 -53.9756987 129.34227259 -55.56298828 131.25878906 C-57.64503132 133.7815772 -59.69406795 136.3309177 -61.75 138.875 C-65.34048875 143.26118314 -69.07838721 147.48915411 -72.89453125 151.6796875 C-74.72917685 153.70154184 -76.52768786 155.74678522 -78.3125 157.8125 C-89.04218918 170.07111385 -100.45405992 181.61109442 -111.98291016 193.11328125 C-114.76190673 195.88688362 -117.53547283 198.66583681 -120.30859375 201.4453125 C-122.09603337 203.23209181 -123.8837829 205.01856115 -125.671875 206.8046875 C-126.48976501 207.62460175 -127.30765503 208.44451599 -128.15032959 209.28927612 C-132.40321536 213.5250083 -136.72618833 217.61321216 -141.2830658 221.5211792 C-143.85732695 223.73842837 -146.32643746 226.05931097 -148.8125 228.375 C-153.48640881 232.69845846 -158.31937093 236.7576835 -163.28125 240.75 C-166.12657378 243.10475071 -168.8464629 245.5600838 -171.5625 248.0625 C-175.63608256 251.80331103 -179.80077362 255.33007213 -184.1484375 258.74609375 C-187.0369102 261.02917423 -189.89002529 263.35115929 -192.74023438 265.68164062 C-199.75933294 271.41732248 -206.8431849 277.03975187 -214.06201172 282.52294922 C-216.34006028 284.25917923 -218.60935163 286.00658855 -220.87890625 287.75390625 C-231.74259613 296.10004582 -242.71442668 304.23287013 -254 312 C-254.97195313 312.67160156 -255.94390625 313.34320312 -256.9453125 314.03515625 C-264.58403879 319.22998136 -270.73586762 319.72921663 -280 319 C-285.93900981 317.39113511 -289.52574567 314.06248489 -293 309 C-296.36651846 303.07957099 -296.70826015 297.64977586 -296 291 C-293.31667074 282.05556915 -286.96889366 276.572114 -279.4375 271.5625 C-271.68472585 266.24944598 -264.19338864 260.65092871 -256.73901367 254.9284668 C-255.85963135 254.25340088 -254.98024902 253.57833496 -254.07421875 252.8828125 C-253.21489746 252.22313477 -252.35557617 251.56345703 -251.47021484 250.88378906 C-248.56633126 248.66928365 -245.63625083 246.49227381 -242.70068359 244.32006836 C-230.5651344 235.33004137 -219.02499297 225.61863779 -207.53051758 215.82958984 C-204.2279889 213.02049475 -200.87876244 210.27914184 -197.5 207.5625 C-192.11714063 203.1854888 -187.05728658 198.50445873 -181.98828125 193.7734375 C-179.6964159 191.63645686 -177.37241243 189.54776652 -175 187.5 C-163.52923645 177.5437642 -152.74448643 166.90346003 -142.02294922 156.15332031 C-139.61149034 153.73646008 -137.19467561 151.3250471 -134.77734375 148.9140625 C-133.21842898 147.35448749 -131.65982414 145.7946026 -130.1015625 144.234375 C-129.03574448 143.17159332 -129.03574448 143.17159332 -127.94839478 142.08734131 C-123.97396799 138.09444364 -120.17053868 134.00497567 -116.49591064 129.73402405 C-114.42630895 127.33499097 -112.27479981 125.01464019 -110.125 122.6875 C-106.08597847 118.25368689 -102.22493122 113.71945416 -98.4609375 109.05078125 C-96.66719764 106.82711326 -94.86127617 104.61801522 -93.0390625 102.41796875 C-70.09820152 74.63019875 -50.16552353 44.77433662 -34.66772461 12.19970703 C-34.03362671 10.87302002 -34.03362671 10.87302002 -33.38671875 9.51953125 C-33.02022217 8.73296143 -32.65372559 7.9463916 -32.27612305 7.13598633 C-29.45620451 2.4159811 -24.92219793 -0.10024778 -20.0625 -2.375 C-12.87270925 -3.84230423 -6.55241557 -3.44936887 0 0 Z " fill="#333333" transform="translate(650,479)"/>
<path d="M0 0 C6.67666062 4.96897627 10.2530357 11.33900948 12.96679688 19.04223633 C13.46530151 20.41303345 13.46530151 20.41303345 13.97387695 21.81152344 C19.10862689 36.25863515 22.80096153 50.91007537 25.59179688 65.97973633 C25.78217529 66.98657471 25.97255371 67.99341309 26.16870117 69.03076172 C30.20316605 92.11324962 31.4365488 115.30356619 31.29122162 138.70057297 C31.27904952 140.77182759 31.27166324 142.84305739 31.26519775 144.91433716 C31.19344441 164.90329291 30.71310228 184.59665637 27.90429688 204.41723633 C27.69192035 205.9882344 27.48055256 207.55936905 27.27001953 209.13061523 C24.95134722 226.31531393 22.32570614 243.43918698 18.77929688 260.41723633 C18.43547974 262.08834473 18.43547974 262.08834473 18.0847168 263.79321289 C16.46345237 271.15245362 14.61664758 278.87803692 8.46679688 283.79223633 C7.63341797 284.48446289 7.63341797 284.48446289 6.78320312 285.19067383 C0.33497719 289.40011861 -6.63864152 289.32703034 -14.09570312 288.41723633 C-20.61897536 286.07643152 -24.87130535 282.34517259 -28.25585938 276.34692383 C-32.40074797 266.82331933 -29.50746409 256.50658732 -27.38925171 246.82052612 C-23.19303679 227.49206223 -20.35193871 208.05805638 -18.09570312 188.41723633 C-17.96292969 187.28157227 -17.83015625 186.1459082 -17.69335938 184.97583008 C-12.1558331 135.2625324 -15.00141777 82.09235492 -32.19628906 34.89648438 C-33.09097345 32.43027376 -33.96231395 29.95839554 -34.81054688 27.47583008 C-35.05023193 26.77772217 -35.28991699 26.07961426 -35.53686523 25.36035156 C-37.27379751 19.32092648 -35.99499279 13.80602207 -33.09570312 8.41723633 C-25.70286115 -2.24221024 -11.98297156 -7.54036306 0 0 Z " fill="#333333" transform="translate(934.095703125,371.582763671875)"/>
<path d="M0 0 C3.47635609 2.85949892 6.74717049 5.89075889 10 9 C10.60457031 9.52980469 11.20914063 10.05960938 11.83203125 10.60546875 C26.43787429 23.91149438 34.79204668 44.8875416 41.125 63.125 C41.56815552 64.36660889 41.56815552 64.36660889 42.02026367 65.63330078 C44.34080355 72.70184795 45.12190497 79.78746259 43.1875 87.05078125 C39.65307688 93.78246212 35.35645551 98.54784816 28 101 C19.91038729 101.62702208 12.68901627 101.98496344 6 97 C0.57401264 91.98763728 -1.63788455 86.475583 -3.875 79.5625 C-9.44570238 63.36884893 -16.24151619 45.06022764 -31.8203125 35.93359375 C-37.90957992 33.1074091 -42.89217794 32.39577764 -49.25 34.5 C-69.137646 42.44417597 -86.98179037 60.26439329 -100.75 76.3125 C-105.39087055 81.69120481 -109.77941861 85.53524968 -117.05078125 86.3359375 C-125.05993374 86.43185549 -130.61161523 85.86738932 -136.7109375 80.4921875 C-141.32111622 75.65712201 -143.84382442 70.19071131 -144.09375 63.484375 C-143.48910439 53.62865154 -138.79437115 47.19299464 -132.0625 40.3125 C-131.4015332 39.62406006 -130.74056641 38.93562012 -130.05957031 38.22631836 C-128.04981287 36.14079816 -126.02607688 34.06965381 -124 32 C-122.83718141 30.79693122 -121.67441775 29.59380935 -120.51171875 28.390625 C-114.04937028 21.75982669 -107.37658071 15.6207325 -100 10 C-99.4838916 9.60216309 -98.9677832 9.20432617 -98.43603516 8.79443359 C-68.70617552 -13.95791942 -33.01012482 -23.39757647 0 0 Z " fill="#333333" transform="translate(651,789)"/>
<path d="M0 0 C5.44419905 3.54482363 8.96653445 8.96210336 11 15.0625 C12.13084237 22.69568599 10.70891618 28.63890286 7.6875 35.5625 C7.3670874 36.29992432 7.0466748 37.03734863 6.71655273 37.79711914 C6.08760764 39.23967286 5.45846402 40.68214004 4.82910156 42.12451172 C-3.22734829 60.95610739 -0.07470842 83.6678098 7.32739258 102.14770508 C17.55934713 126.41338214 36.61553398 146.77386235 57.41772461 162.49511719 C64.15001141 167.61169522 69.58397175 172.40899401 71 181.0625 C71.67477928 188.35011624 69.80187521 194.33394612 65.8125 200.375 C60.69267613 205.26727614 54.85334154 207.76027713 47.8125 208.3125 C32.88424549 207.33359806 22.07180512 195.30734629 11.67578125 185.55078125 C9.43378582 183.46588915 7.1532465 181.47139794 4.8125 179.5 C-23.85045295 154.49363775 -43.86861641 115.86220417 -47 78.0625 C-48.18607409 53.89821716 -45.38580435 23.15307335 -29.109375 3.81640625 C-21.38490218 -3.18599629 -9.37007373 -4.62129487 0 0 Z " fill="#333333" transform="translate(719,654.9375)"/>
</svg>
